<svg xmlns="http://www.w3.org/2000/svg" viewBox="0 0 512 512" width="512" height="512">
  <rect width="512" height="512" rx="80" fill="#4A6FA5"/>
  <rect x="100" y="120" width="220" height="280" rx="12" fill="#ffffff" opacity="0.95"/>
  <rect x="192" y="100" width="36" height="40" rx="6" fill="#4A6FA5"/>
  <rect x="192" y="100" width="36" height="40" rx="6" fill="#2d4f7a"/>
  <rect x="130" y="175" width="160" height="12" rx="4" fill="#4A6FA5" opacity="0.7"/>
  <rect x="130" y="205" width="130" height="10" rx="4" fill="#9bb3d4" opacity="0.8"/>
  <rect x="130" y="228" width="145" height="10" rx="4" fill="#9bb3d4" opacity="0.8"/>
  <rect x="130" y="251" width="110" height="10" rx="4" fill="#9bb3d4" opacity="0.8"/>
  <rect x="130" y="285" width="160" height="12" rx="4" fill="#4A6FA5" opacity="0.7"/>
  <rect x="130" y="310" width="125" height="10" rx="4" fill="#9bb3d4" opacity="0.8"/>
  <rect x="130" y="333" width="140" height="10" rx="4" fill="#9bb3d4" opacity="0.8"/>
  <!-- Pen/stylus -->
  <g transform="translate(290,270) rotate(-35)">
    <rect x="-8" y="-70" width="16" height="90" rx="4" fill="#F59E0B"/>
    <polygon points="-8,20 8,20 0,42" fill="#1A1A2E"/>
    <rect x="-8" y="-80" width="16" height="14" rx="3" fill="#2d4f7a"/>
  </g>
</svg>
