<svg xmlns="http://www.w3.org/2000/svg" viewBox="0 0 512 512">
  <!-- Rounded background -->
  <rect width="512" height="512" rx="80" fill="#4A6FA5"/>
  <!-- Book body -->
  <rect x="110" y="96" width="292" height="320" rx="14" fill="#ffffff"/>
  <!-- Book spine -->
  <rect x="110" y="96" width="44" height="320" rx="10" fill="#2d4f7a"/>
  <!-- Text lines -->
  <rect x="180" y="156" width="185" height="14" rx="7" fill="#4A6FA5" opacity="0.65"/>
  <rect x="180" y="190" width="162" height="11" rx="5" fill="#9bb3d4"/>
  <rect x="180" y="214" width="175" height="11" rx="5" fill="#9bb3d4"/>
  <rect x="180" y="238" width="140" height="11" rx="5" fill="#9bb3d4"/>
  <!-- Calendar block -->
  <rect x="180" y="275" width="192" height="110" rx="12" fill="#4A6FA5"/>
  <!-- Calendar header -->
  <rect x="180" y="275" width="192" height="38" rx="12" fill="#2d4f7a"/>
  <rect x="180" y="295" width="192" height="18" fill="#2d4f7a"/>
  <!-- Calendar binding rings -->
  <rect x="220" y="262" width="10" height="26" rx="5" fill="#ffffff"/>
  <rect x="256" y="262" width="10" height="26" rx="5" fill="#ffffff"/>
  <rect x="292" y="262" width="10" height="26" rx="5" fill="#ffffff"/>
  <rect x="328" y="262" width="10" height="26" rx="5" fill="#ffffff"/>
  <!-- Calendar grid -->
  <rect x="192" y="325" width="14" height="14" rx="4" fill="#ffffff"/>
  <rect x="216" y="325" width="14" height="14" rx="4" fill="#ffffff"/>
  <rect x="240" y="325" width="14" height="14" rx="4" fill="#ffffff"/>
  <rect x="264" y="325" width="14" height="14" rx="4" fill="#ffffff"/>
  <rect x="288" y="325" width="14" height="14" rx="4" fill="#ffffff"/>
  <rect x="312" y="325" width="14" height="14" rx="4" fill="#ffffff"/>
  <rect x="192" y="351" width="14" height="14" rx="4" fill="#ffffff"/>
  <rect x="216" y="351" width="14" height="14" rx="4" fill="#ffffff"/>
  <rect x="240" y="351" width="14" height="14" rx="4" fill="#F59E0B"/>
  <rect x="264" y="351" width="14" height="14" rx="4" fill="#ffffff"/>
  <rect x="288" y="351" width="14" height="14" rx="4" fill="#ffffff"/>
</svg>
